<svg xmlns="http://www.w3.org/2000/svg" viewBox="0 0 128 128"><defs><style>.cls-1{fill:#7aa8d7;}.cls-2{fill:#5b8dc9;}.cls-3{fill:#d4d8e1;}.cls-4{fill:#c7cdd8;}.cls-5{fill:#949aaf;}.cls-6{fill:#8cdd79;}.cls-7{fill:#7ece67;}.cls-8{fill:#e7f4ce;}.cls-9{fill:#6ab891;}.cls-10{fill:#4da67f;}.cls-11{fill:#9b756d;}</style></defs><title>Eating Time</title><g id="Eating_Time" data-name="Eating Time"><path class="cls-1" d="M57,1A56,56,0,0,0,1.32,63h0A56,56,0,1,0,57,1Z"/><path class="cls-2" d="M70.94,111.25C34.86,120.49-.38,92.43,1,55c1.06,35.46,35.15,61.2,69.9,52.3A56.06,56.06,0,0,0,113,55,56,56,0,0,1,70.94,111.25Z"/><path class="cls-3" d="M102.23,65.36a46,46,0,1,0-90.05,2h0l0,0c6.48,28,32.09,33.68,32.23,33.83A46,46,0,0,0,101.8,67.42l0,0C101.82,67.3,102,66.86,102.23,65.36Z"/><path class="cls-4" d="M102.83,60.9a46,46,0,0,0-91.85-4,46,46,0,1,1,91.85,4Z"/><path class="cls-5" d="M56,19V15a1,1,0,0,1,2,0v4A1,1,0,0,1,56,19Z"/><path class="cls-5" d="M56,99V95a1,1,0,0,1,2,0v4A1,1,0,0,1,56,99Z"/><path class="cls-5" d="M99,58H95a1,1,0,0,1,0-2h4A1,1,0,0,1,99,58Z"/><path class="cls-5" d="M19,58H15a1,1,0,0,1,0-2h4A1,1,0,0,1,19,58Z"/><path class="cls-5" d="M58,15a1,1,0,0,1-2,0A1,1,0,0,1,58,15Z"/><path class="cls-5" d="M21.13,35.13a1,1,0,0,1-1,1.74A1,1,0,0,1,21.13,35.13Z"/><path class="cls-5" d="M92.87,35.13a1,1,0,0,0,1,1.74A1,1,0,0,0,92.87,35.13Z"/><path class="cls-5" d="M20.13,77.13a1,1,0,0,0,1,1.74A1,1,0,0,0,20.13,77.13Z"/><path class="cls-5" d="M78.87,21.13a1,1,0,0,1-1.74-1A1,1,0,0,1,78.87,21.13Z"/><path class="cls-5" d="M36.87,93.87a1,1,0,0,1-1.74-1A1,1,0,0,1,36.87,93.87Z"/><path class="cls-5" d="M36.87,20.13a1,1,0,0,0-1.74,1A1,1,0,0,0,36.87,20.13Z"/><path class="cls-5" d="M57,59a2,2,0,1,1,2-2A2,2,0,0,1,57,59Zm0-2h0Zm0,0h0Zm0,0h0Zm0,0h0Zm0,0h0Zm0,0h0Zm0,0h0Zm0,0h0Z"/><path class="cls-5" d="M56,58V27a1,1,0,0,1,2,0V58A1,1,0,0,1,56,58Z"/><path class="cls-5" d="M35,71a1,1,0,0,1-.51-1.86l22-13a1,1,0,0,1,1,1.72C34,71.74,35.41,71,35,71Z"/><path class="cls-6" d="M111.19,75C122.29,74.6,127,84.86,127,96c0,13-12,31-21,31-6,0-5-1-8-1s-2,1-8,1c-9,0-21-18-21-31s6-21,15-21c7,0,11,2,14,2"/><path class="cls-7" d="M106,127c-6,0-5-1-8-1s-2,1-8,1c-8.46,0-22.27-18-20.89-33.87C70.28,105.88,81.48,122,90,122c6,0,5-1,8-1s2,1,8,1c8.52,0,19.72-16.12,20.89-28.87C128.26,108.92,114.57,127,106,127Z"/><path class="cls-8" d="M120,96c0-6.77-2.1-14-8-14a1,1,0,0,1,0-2c7.37,0,10,8.27,10,16A1,1,0,0,1,120,96Z"/><path class="cls-9" d="M98,77h6a14,14,0,0,0,14-14h-6A14,14,0,0,0,98,77Z"/><path class="cls-10" d="M118,63a14,14,0,0,1-14,14H98a14.14,14.14,0,0,1,.32-3H104a14,14,0,0,0,13.68-11Z"/><path class="cls-11" d="M97,77V69a7,7,0,0,0-7-7,1,1,0,0,1-1-1c0-2.76,10-.11,10,8v8A1,1,0,0,1,97,77Z"/></g></svg>