<svg xmlns="http://www.w3.org/2000/svg" viewBox="0 0 128 128"><defs><style>.cls-1{fill:#9dd5df;}.cls-2{fill:#77cacb;}.cls-3{fill:#d4d8e1;}.cls-4{fill:#c7cdd8;}.cls-5{fill:#e2607f;}.cls-6{fill:#fbcc88;}.cls-7{fill:#949aaf;}.cls-8{fill:#8288a1;}.cls-9{fill:#c3e1f5;}</style></defs><title>Good Cook</title><g id="Good_Cook" data-name="Good Cook"><path class="cls-1" d="M125.5,33.72V7a6,6,0,0,0-12,0V33.72a8,8,0,1,0,12,0Z"/><path class="cls-2" d="M118.59,47a8,8,0,0,1-6.94-9.45,8,8,0,0,0,15.71,0A8,8,0,0,1,118.59,47Z"/><path class="cls-3" d="M18.5,47h90a0,0,0,0,1,0,0v60a6,6,0,0,1-6,6h-78a6,6,0,0,1-6-6V47A0,0,0,0,1,18.5,47Z"/><path class="cls-4" d="M108.5,103v4a6,6,0,0,1-6,6h-78a6,6,0,0,1-6-6v-4a6,6,0,0,0,6,6h78A6,6,0,0,0,108.5,103Z"/><path class="cls-1" d="M24.5,109a2,2,0,0,1-2-2V75s17,9,41,0,41,0,41,0v32a2,2,0,0,1-2,2Z"/><path class="cls-2" d="M104.5,103v4a2,2,0,0,1-2,2h-78a2,2,0,0,1-2-2v-4a2,2,0,0,0,2,2h78A2,2,0,0,0,104.5,103Z"/><path class="cls-5" d="M36.5,122a5,5,0,0,1-10,0c0-4,5-9,5-9S36.5,118,36.5,122Z"/><path class="cls-6" d="M34.36,124.14a2.86,2.86,0,0,1-5.72,0c0-2.28,2.86-5.14,2.86-5.14S34.36,121.86,34.36,124.14Z"/><path class="cls-5" d="M52.5,122a5,5,0,0,1-10,0c0-4,5-9,5-9S52.5,118,52.5,122Z"/><path class="cls-6" d="M50.36,124.14a2.86,2.86,0,0,1-5.72,0c0-2.28,2.86-5.14,2.86-5.14S50.36,121.86,50.36,124.14Z"/><path class="cls-5" d="M68.5,122a5,5,0,0,1-10,0c0-4,5-9,5-9S68.5,118,68.5,122Z"/><path class="cls-6" d="M66.36,124.14a2.86,2.86,0,0,1-5.72,0c0-2.28,2.86-5.14,2.86-5.14S66.36,121.86,66.36,124.14Z"/><path class="cls-5" d="M84.5,122a5,5,0,0,1-10,0c0-4,5-9,5-9S84.5,118,84.5,122Z"/><path class="cls-6" d="M82.36,124.14a2.86,2.86,0,0,1-5.72,0c0-2.28,2.86-5.14,2.86-5.14S82.36,121.86,82.36,124.14Z"/><path class="cls-5" d="M100.5,122a5,5,0,0,1-10,0c0-4,5-9,5-9S100.5,118,100.5,122Z"/><path class="cls-6" d="M98.36,124.14a2.86,2.86,0,0,1-5.72,0c0-2.28,2.86-5.14,2.86-5.14S98.36,121.86,98.36,124.14Z"/><path class="cls-7" d="M123.5,60h-15V54h15a3,3,0,0,1,0,6Z"/><path class="cls-7" d="M18.5,60H3.5a3,3,0,0,1,0-6h15Z"/><path class="cls-8" d="M123.5,60h-15V57c16.15,0,16.39.49,17.6-1.5A3,3,0,0,1,123.5,60Z"/><path class="cls-8" d="M18.5,57v3H3.5A3,3,0,0,1,.9,55.5,3,3,0,0,0,3.5,57Z"/><path class="cls-5" d="M121.5,36.78V20a2,2,0,0,0-4,0V36.78a3,3,0,0,0-1,2.75,3,3,0,0,0,6-.53A3,3,0,0,0,121.5,36.78Z"/><path class="cls-3" d="M62.9,31.2s3.3-2.93-.35-13.88C58.44,5,62.43,1.55,62.9,1.2a1,1,0,0,1,1.22,1.59c-.1.08-3.29,3.05.33,13.89,4.11,12.33.12,15.77-.35,16.12A1,1,0,0,1,62.9,31.2Z"/><path class="cls-3" d="M38.9,39.2s3.3-2.93-.35-13.88C34.44,13,38.43,9.55,38.9,9.2a1,1,0,0,1,1.22,1.59c-.1.08-3.29,3.05.33,13.89,4.11,12.33.12,15.77-.35,16.12A1,1,0,0,1,38.9,39.2Z"/><path class="cls-3" d="M85.9,40.2s3.3-2.93-.35-13.88C81.44,14,85.43,10.55,85.9,10.2a1,1,0,0,1,1.22,1.59c-.1.08-3.29,3.05.33,13.89,4.11,12.33.12,15.77-.35,16.12A1,1,0,0,1,85.9,40.2Z"/><circle class="cls-9" cx="90.5" cy="97" r="4"/><circle class="cls-9" cx="70.5" cy="84" r="3"/><circle class="cls-9" cx="36.5" cy="94" r="5"/></g></svg>