<svg xmlns="http://www.w3.org/2000/svg" viewBox="0 0 128 128"><defs><style>.cls-1{fill:#6ab891;}.cls-2{fill:#fbcc88;}.cls-3{fill:#9dd5df;}.cls-4{fill:#8288a1;}.cls-5{fill:#8cdd79;}.cls-6{fill:#d3ac92;}.cls-7{fill:#cba07a;}.cls-8{fill:#f6b756;}.cls-9{fill:#d4d8e1;}.cls-10{fill:#949aaf;}.cls-11{fill:#454b60;}.cls-12{fill:#4da67f;}.cls-13{fill:#7ece67;}.cls-14{fill:#e7f4ce;}.cls-15{fill:#9b756d;}.cls-16{fill:#c7cdd8;}</style></defs><title>Healty portion</title><g id="Healty_portion" data-name="Healty portion"><path class="cls-1" d="M64,1V64H1A63,63,0,0,1,64,1Z"/><path class="cls-2" d="M127,64H64V1A63,63,0,0,1,127,64Z"/><path class="cls-3" d="M127,64a63,63,0,0,1-63,63V64Z"/><path class="cls-4" d="M82.4,81.69,85,75.63a28,28,0,0,1,20,5c3.54,2.48,4,4.83,3,6.83Z"/><path class="cls-5" d="M64,64v63A63,63,0,0,1,1,64Z"/><path class="cls-1" d="M48.55,94.78A38.16,38.16,0,0,0,41,118H30c0-6.53-1.92-16.35-6.24-22.37l2.45-1.27C29.37,98.3,33,104,33,104V94.25L35,92l2.41,3.74L38,104c2.32-3.49,5.32-7.31,7.43-9.9Z"/><rect class="cls-6" x="14" y="19" width="42" height="6" rx="2"/><path class="cls-7" d="M56,23a2,2,0,0,1-2,2H16a2,2,0,0,1-2-2,10.77,10.77,0,0,1,.07-2.5A2,2,0,0,0,16,22H54a2,2,0,0,0,1.93-1.5A10.38,10.38,0,0,1,56,23Z"/><path class="cls-6" d="M54,25s2,9,2,14-2,10-2,13,2,3,2,5-2,2-4,2H18c-2,0-4,0-4-2s2-2,2-5-2-8-2-13,2-14,2-14Z"/><path class="cls-7" d="M54.86,54.7A3.49,3.49,0,0,1,56,57c0,2-2,2-4,2H18c-2,0-4,0-4-2a3.49,3.49,0,0,1,1.14-2.3c1,.41,1.07.3,19.86.3S53.82,55.11,54.86,54.7Z"/><path class="cls-2" d="M35,46a6,6,0,0,0-5.22-5.94A6.11,6.11,0,0,1,27,35c2.29,0,4.17-.21,6.09,1.62C35.51,38.86,35,41.4,35,46Z"/><path class="cls-2" d="M43,35a6,6,0,0,1-2.77,5h0A6,6,0,0,0,35,46V41a6,6,0,0,1,6-6Z"/><path class="cls-8" d="M35,44v2a6,6,0,0,0-5.22-5.94A6.11,6.11,0,0,1,27,35h.35a6,6,0,0,0,2.43,3.06A6,6,0,0,1,35,44Z"/><path class="cls-8" d="M43,35a6,6,0,0,1-2.77,5h0A6,6,0,0,0,35,46V44a6,6,0,0,1,5.22-5.94A6,6,0,0,0,42.65,35Z"/><path class="cls-2" d="M36.91,36.62A5.94,5.94,0,0,0,35,41a5.94,5.94,0,0,0-1.91-4.38,6,6,0,0,1,1.15-6.86L35,29l.76.76A6,6,0,0,1,36.91,36.62Z"/><path class="cls-8" d="M36.91,36.62A5.94,5.94,0,0,0,35,41a5.94,5.94,0,0,0-1.91-4.38A6,6,0,0,1,32.58,33c.3,2.17,1,1.58,1.88,3.53a.59.59,0,0,0,1.08,0c.9-2,1.57-1.35,1.88-3.53A6,6,0,0,1,36.91,36.62Z"/><path class="cls-2" d="M35,46H33a6,6,0,0,1-6-6,25.8,25.8,0,0,1,2.78.06A6,6,0,0,1,35,46Z"/><path class="cls-2" d="M43,40a6,6,0,0,1-6,6H35a6,6,0,0,1,5.22-5.94A25.8,25.8,0,0,1,43,40Z"/><path class="cls-8" d="M35,46H33a6,6,0,0,1-6-6h.35A6,6,0,0,0,33,44h1.65A5.76,5.76,0,0,1,35,46Z"/><path class="cls-8" d="M43,40a6,6,0,0,1-6,6H35a5.76,5.76,0,0,1,.35-2H37a6,6,0,0,0,5.65-4Z"/><path class="cls-8" d="M34,51V38a1,1,0,0,1,2,0V51A1,1,0,0,1,34,51Z"/><path class="cls-9" d="M51,19H19a30.51,30.51,0,0,1,2.57-3c8.67-8.94,17.49-9.66,26.86,0A30.51,30.51,0,0,1,51,19Z"/><path class="cls-10" d="M119,93.63a4.39,4.39,0,0,1,3,4.16v7.84c-5,0-4-7-10-7-4.65,0-7.5,4.81-14.61,7L87,106.46c-11.06-1.17-19-9-19-12.83,0-4.28,9.42-13,22-13,13,0,16,8,22,8s5-7,10-7v7.84A4.39,4.39,0,0,1,119,93.63Z"/><path class="cls-4" d="M122,102.63v3c-5,0-4-7-10-7-4.65,0-7.5,4.81-14.61,7L87,106.46c-11.37-1.22-19-9.14-19-12.83a4.12,4.12,0,0,1,.33-1.5c1.57,4,8.68,10.26,18.68,11.33l10.38-.86c7.11-2.16,10-7,14.61-7C118,95.63,117,102.63,122,102.63Z"/><path class="cls-4" d="M80,104.75c-.52-.2-1.41-.56-2-.86a.92.92,0,0,1,.33-.4,12,12,0,0,0,0-19.69,1,1,0,0,1-.37-.43c.62-.32,1.47-.66,2-.86A14,14,0,0,1,80,104.75Z"/><path class="cls-10" d="M91,102.63c4,0,9,4.79,9,6.71s-6.84,1.52-10,0c-2-1-4-3.83-4-5.75"/><path class="cls-4" d="M100,109.34c0,1.92-6.84,1.52-10,0-2-1-4-3.83-4-5.75l1-.19a7.85,7.85,0,0,0,3,2.94c2.43,1.17,7,1.67,9,1A3.83,3.83,0,0,1,100,109.34Z"/><path class="cls-11" d="M77,91.63a2,2,0,1,1,2-2A2,2,0,0,1,77,91.63Zm0-2h0Zm0,0h0Zm0,0h0Zm0,0h0Zm0,0h0Zm0,0h0Zm0,0h0Zm0,0h0Z"/><path class="cls-1" d="M13,87.48c0,7.7,9.28,11.46,14.41,5.79a4.66,4.66,0,0,0,6.82,0,5.87,5.87,0,0,0,9.83,0A8.33,8.33,0,0,0,57,86.26a8.54,8.54,0,0,0-4.84-7.73,3.57,3.57,0,0,0-5.11-4,7.66,7.66,0,0,0-11.63-3.93,3.52,3.52,0,0,0-6.79,0A6,6,0,0,0,21.84,79,8.39,8.39,0,0,0,13,87.48Z"/><path class="cls-12" d="M44.06,93.36a5.87,5.87,0,0,1-9.83,0,4.66,4.66,0,0,1-6.82,0c-5.89,6.51-16.61.5-14-8.29a8.24,8.24,0,0,0,14.05,3.29,4.65,4.65,0,0,0,6.82,0,5.87,5.87,0,0,0,9.83,0,8.29,8.29,0,0,0,12.58-4.58C58.92,91.62,50.39,97.67,44.06,93.36Z"/><path class="cls-5" d="M102.52,21.16c8-.31,11.46,7.14,11.48,15.25C114,45.86,105.35,59,98.83,59c-4.34,0-3.62-.72-5.79-.72s-1.45.73-5.79.74C80.73,59,72,45.94,72,36.48S76.32,21.2,82.84,21.19c5.06,0,8,1.44,10.14,1.44Z"/><path class="cls-13" d="M98.83,59c-4.34,0-3.62-.72-5.79-.72s-1.45.73-5.79.74C81.46,59,71.1,46.53,72.09,34.16,73,43.41,81.11,55,87.25,55c4.34,0,3.62-.73,5.79-.74s1.45.73,5.79.72C105,55,113,43.4,113.91,34.16,114.92,46.27,104.78,59,98.83,59Z"/><path class="cls-14" d="M108.65,36.42a16.22,16.22,0,0,0-1.36-7c-1.7-3.39-4.48-2.91-4.17-2.91a1,1,0,1,1,0-2c5.59,0,7.51,6.26,7.52,11.89A1,1,0,0,1,108.65,36.42Z"/><path class="cls-1" d="M93,22.63H97.3a10.16,10.16,0,0,0,10.14-10.2h-4.32A10.15,10.15,0,0,0,93,22.63Z"/><path class="cls-12" d="M107.44,12.42A10.16,10.16,0,0,1,97.3,22.62c-4.49,0-4.32.08-4.32,0a10.07,10.07,0,0,1,.44-3H97.3a10.16,10.16,0,0,0,9.7-7.2Z"/><path class="cls-15" d="M92,22.63V16.81A4.81,4.81,0,0,0,87.17,12a1,1,0,0,1-1-1c0-2.48,7.8-.45,7.81,5.81v5.81A1,1,0,0,1,92,22.63Z"/><path class="cls-16" d="M51,19H19a30.51,30.51,0,0,1,2.57-3H48.43A30.51,30.51,0,0,1,51,19Z"/><path class="cls-12" d="M41.43,112a41.91,41.91,0,0,0-.43,6H30a49.19,49.19,0,0,0-.48-6Z"/></g></svg>