<svg xmlns="http://www.w3.org/2000/svg" viewBox="0 0 128 128"><defs><style>.cls-1{fill:#f2c4b0;}.cls-2{fill:#eab39b;}.cls-3{fill:#e2607f;}.cls-4{fill:#fbcc88;}.cls-5{fill:#6ab891;}</style></defs><title>Metabolism</title><g id="Metabolism"><path class="cls-1" d="M64,39A10,10,0,0,1,54,29V25a10,10,0,0,1,20,0v4A10,10,0,0,1,64,39Z"/><path class="cls-2" d="M74,25v4a10,10,0,0,1-20,0V25a10,10,0,0,0,20,0Z"/><path class="cls-1" d="M103,39H25.17A4.12,4.12,0,0,0,21,42.61,4,4,0,0,0,25,47H52v61.84a4.16,4.16,0,0,0,8.31.33L62.92,77a1.08,1.08,0,0,1,2.16,0l2.61,32.17a4.16,4.16,0,0,0,8.31-.33V47h26.83A4.12,4.12,0,0,0,107,43.39,4,4,0,0,0,103,39Z"/><path class="cls-2" d="M52,47H25a4,4,0,0,1-3.71-5.48A4,4,0,0,0,25,44H49A3,3,0,0,1,52,47Z"/><path class="cls-2" d="M74.78,108.78A4.11,4.11,0,0,0,76,105.84v3a4.16,4.16,0,0,1-8.31.33L65.08,77a1.08,1.08,0,0,0-2.16,0l-2.61,32.17a4.16,4.16,0,0,1-8.31-.51v-2.82a4.16,4.16,0,0,0,8.31.33L62.92,74a1.08,1.08,0,0,1,2.16,0l2.61,32.17A4.16,4.16,0,0,0,74.78,108.78Z"/><path class="cls-2" d="M102.78,47H76a3,3,0,0,1,3-3h23.83a4.2,4.2,0,0,0,3.88-2.52A4.06,4.06,0,0,1,102.78,47Z"/><path class="cls-3" d="M71,62a7,7,0,0,1-13.94.93c-.4-3.25,1.38-8.26,3.24-10.45l1,1.27a1.5,1.5,0,0,0,2.66-1V49S71,56,71,62Z"/><path class="cls-4" d="M67,66a3,3,0,0,1-6,0c0-3,3-7,3-7S67,63,67,66Z"/><path class="cls-5" d="M4.56,84.91l5.63-2a57,57,0,0,1,94.12-59.17l-5,4.95H113.5V14.5l-5,4.95a63,63,0,0,0-104,65.46Z"/><path class="cls-5" d="M14.5,99.36V113.5l4.95-5A63,63,0,0,0,123,41.8l-5.64,2.06a57,57,0,0,1-93.65,60.45l4.95-5Z"/></g></svg>